<svg xmlns="http://www.w3.org/2000/svg" xmlns:xlink="http://www.w3.org/1999/xlink" version="1.1" x="0px" y="0px" viewBox="0 0 100 125" enable-background="new 0 0 100 100" xml:space="preserve"><path d="M90.814,40.719l-6.395-1.066c-1.91-0.318-3.236-1.158-3.736-2.364c-0.5-1.207-0.154-2.738,0.971-4.313l3.769-5.276  c1.382-1.935,1.147-4.769-0.532-6.451l-6.14-6.138c-0.908-0.909-2.21-1.43-3.569-1.43c-1.05,0-2.072,0.318-2.882,0.896l-5.274,3.769  c-1.092,0.779-2.184,1.19-3.156,1.19c-1.819,0-3.104-1.442-3.521-3.957l-1.068-6.394C58.889,6.838,56.721,5,54.341,5h-8.682  c-2.379,0-4.548,1.838-4.939,4.186l-1.065,6.393c-0.42,2.516-1.703,3.958-3.522,3.958c-0.973,0-2.063-0.412-3.154-1.19l-5.275-3.769  c-0.809-0.578-1.832-0.896-2.881-0.896c-1.36,0-2.662,0.521-3.57,1.43L15.11,21.25c-1.682,1.682-1.916,4.516-0.534,6.451l3.77,5.275  c1.125,1.575,1.47,3.106,0.97,4.313s-1.826,2.046-3.734,2.364L9.185,40.72C6.839,41.111,5,43.28,5,45.659v8.682  c0,2.379,1.838,4.548,4.186,4.939l6.396,1.064c1.909,0.318,3.235,1.158,3.734,2.364c0.5,1.205,0.155,2.736-0.97,4.313l-3.769,5.275  c-1.383,1.936-1.148,4.77,0.533,6.451l6.141,6.141c0.909,0.908,2.21,1.43,3.569,1.43c1.05,0,2.073-0.318,2.882-0.896l5.275-3.77  c1.091-0.778,2.182-1.19,3.155-1.19c1.818,0,3.102,1.442,3.521,3.956l1.065,6.396C41.111,93.162,43.28,95,45.659,95h8.682  c2.38,0,4.55-1.838,4.94-4.186l1.064-6.396c0.42-2.514,1.702-3.956,3.521-3.956c0.975,0,2.065,0.412,3.157,1.191l5.274,3.769  c0.81,0.577,1.832,0.896,2.882,0.896c1.358,0,2.659-0.521,3.569-1.428l6.138-6.142c1.684-1.681,1.918-4.515,0.534-6.451  l-3.769-5.274c-1.125-1.575-1.471-3.106-0.971-4.313s1.826-2.046,3.736-2.364l6.395-1.064C93.162,58.889,95,56.72,95,54.341v-8.682  C95,43.281,93.162,41.111,90.814,40.719z M91.816,54.341c0,0.81-0.728,1.666-1.524,1.8l-6.396,1.064  c-3.033,0.506-5.219,2.027-6.153,4.286c-0.937,2.259-0.466,4.88,1.319,7.381l3.77,5.274c0.47,0.658,0.379,1.778-0.193,2.352  l-6.138,6.141c-0.549,0.547-1.717,0.648-2.353,0.193l-5.274-3.77c-1.634-1.166-3.365-1.783-5.007-1.783  c-3.428,0-5.98,2.535-6.662,6.617l-1.064,6.396c-0.133,0.798-0.99,1.524-1.8,1.524h-8.682c-0.81,0-1.666-0.728-1.799-1.524  l-1.065-6.396c-0.682-4.082-3.233-6.616-6.662-6.616c-1.641,0-3.372,0.616-5.005,1.784l-5.275,3.769  c-0.635,0.453-1.803,0.354-2.351-0.194l-6.14-6.14c-0.572-0.572-0.664-1.692-0.194-2.351l3.769-5.275  c1.786-2.501,2.256-5.122,1.32-7.381c-0.936-2.258-3.12-3.78-6.152-4.286l-6.397-1.065c-0.798-0.134-1.524-0.99-1.524-1.8v-8.682  c0-0.809,0.727-1.667,1.524-1.8l6.396-1.066c3.032-0.505,5.217-2.027,6.152-4.286c0.936-2.258,0.466-4.879-1.32-7.381l-3.77-5.275  c-0.47-0.658-0.377-1.778,0.195-2.351l6.14-6.138c0.548-0.547,1.716-0.646,2.351-0.194l5.275,3.769  c1.634,1.167,3.363,1.784,5.004,1.784c0,0,0,0,0.001,0c3.429,0,5.98-2.536,6.662-6.617l1.065-6.394  c0.133-0.798,0.989-1.525,1.799-1.525h8.682c0.811,0,1.666,0.727,1.799,1.524l1.065,6.395c0.683,4.082,3.233,6.617,6.663,6.617  c1.641,0,3.371-0.617,5.006-1.784l5.275-3.769c0.635-0.452,1.803-0.353,2.351,0.194l6.138,6.138  c0.572,0.572,0.664,1.692,0.194,2.351l-3.769,5.276c-1.787,2.501-2.256,5.123-1.32,7.381c0.936,2.259,3.121,3.781,6.154,4.286  l6.395,1.066c0.798,0.133,1.523,0.991,1.523,1.8v8.681H91.816z"/><path d="M50,32.492c-9.653,0-17.508,7.854-17.508,17.508c0,9.652,7.854,17.508,17.508,17.508c9.654,0,17.508-7.855,17.508-17.508  C67.508,40.346,59.652,32.492,50,32.492z M50,64.324c-7.898,0-14.324-6.426-14.324-14.324c0-7.899,6.426-14.325,14.324-14.325  c7.898,0,14.324,6.426,14.324,14.325C64.324,57.898,57.898,64.324,50,64.324z"/><text x="0" y="115" fill="#000000" font-size="5px" font-weight="bold" font-family="'Helvetica Neue', Helvetica, Arial-Unicode, Arial, Sans-serif">Created by Milinda Courey</text><text x="0" y="120" fill="#000000" font-size="5px" font-weight="bold" font-family="'Helvetica Neue', Helvetica, Arial-Unicode, Arial, Sans-serif">from the Noun Project</text></svg>