<svg xmlns="http://www.w3.org/2000/svg" xmlns:xlink="http://www.w3.org/1999/xlink" version="1.1" x="0px" y="0px" viewBox="0 0 100 125" style="enable-background:new 0 0 100 100;" xml:space="preserve">
    <g style="fill: #fff">
        <path d="M50,4.8C25,4.8,4.8,25,4.8,50C4.8,75,25,95.3,50,95.3C75,95.3,95.3,75,95.3,50C95.3,25,75,4.8,50,4.8z M50,88   C29,88,12,71,12,50C12,29,29,12,50,12C71,12,88,29,88,50C88,71,71,88,50,88z"/>
        <path d="M50,39.5c-2,0-3.6,1.6-3.6,3.6v25.3c0,2,1.6,3.6,3.6,3.6s3.6-1.6,3.6-3.6V43.1C53.6,41.1,52,39.5,50,39.5z"/>
        <path d="M50,28c-2,0-3.6,1.6-3.6,3.6c0,2,1.6,3.6,3.6,3.6s3.6-1.6,3.6-3.6C53.6,29.6,52,28,50,28z"/>
    </g>
</svg>